<svg width="123" height="122" viewBox="0 0 123 122" fill="none" xmlns="http://www.w3.org/2000/svg">
<path d="M9.52938 30.7887L61.8569 0.57735L114.184 30.7887V91.2113L61.8569 121.423L9.52938 91.2113V30.7887Z" fill="#D9D9D9" fill-opacity="0.2" stroke="#ACACAC"/>
<path d="M62 1L61.8569 65" stroke="#ACACAC"/>
<path d="M114 91L61.8569 65" stroke="#ACACAC"/>
<path d="M10 91L61.8569 65" stroke="#ACACAC"/>
<path d="M15.8569 83L17.5847 83.1216L16.8261 81.5645L15.8569 83ZM54.8569 64L53.1292 63.8784L53.8877 65.4355L54.8569 64ZM17.1363 82.5436L53.709 64.7261L53.5776 64.4564L17.0049 82.2739L17.1363 82.5436Z" fill="black"/>
<path d="M15.8569 83L17.5847 83.1216L16.8261 81.5645L15.8569 83ZM54.8569 64L53.1292 63.8784L53.8877 65.4355L54.8569 64ZM17.1363 82.5436L53.709 64.7261L53.5776 64.4564L17.0049 82.2739L17.1363 82.5436Z" fill="black"/>
<path d="M65.3569 58.9146L66.223 57.4146L64.4909 57.4146L65.3569 58.9146ZM65.3569 15.0853L64.4909 16.5853L66.223 16.5853L65.3569 15.0853ZM65.5069 57.5646L65.5069 16.4353L65.2069 16.4353L65.2069 57.5646L65.5069 57.5646Z" fill="black"/>
<path d="M63.8569 71L64.7965 72.4551L65.5868 70.9139L63.8569 71ZM102.857 91L101.917 89.5449L101.127 91.0861L102.857 91ZM64.9897 71.7495L101.587 90.5174L101.724 90.2505L65.1266 71.4826L64.9897 71.7495Z" fill="black"/>
<path d="M34.8594 64.62H38.3844V66H33.1494V55.575H34.8594V64.62Z" fill="black"/>
<path d="M78.5188 35.575V46H76.8088V41.44H71.9038V46H70.1938V35.575H71.9038V40.045H76.8088V35.575H78.5188Z" fill="black"/>
<path d="M74.8378 86.645C75.3978 86.745 75.8728 87.04 76.2628 87.53C76.6528 88.02 76.8478 88.575 76.8478 89.195C76.8478 89.725 76.7078 90.205 76.4278 90.635C76.1578 91.055 75.7628 91.39 75.2428 91.64C74.7228 91.88 74.1178 92 73.4278 92H69.2578V81.575H73.2328C73.9428 81.575 74.5528 81.695 75.0628 81.935C75.5728 82.175 75.9578 82.5 76.2178 82.91C76.4778 83.31 76.6078 83.76 76.6078 84.26C76.6078 84.86 76.4478 85.36 76.1278 85.76C75.8078 86.16 75.3778 86.455 74.8378 86.645ZM70.9678 85.955H73.0828C73.6428 85.955 74.0778 85.83 74.3878 85.58C74.7078 85.32 74.8678 84.95 74.8678 84.47C74.8678 84 74.7078 83.635 74.3878 83.375C74.0778 83.105 73.6428 82.97 73.0828 82.97H70.9678V85.955ZM73.2778 90.605C73.8578 90.605 74.3128 90.465 74.6428 90.185C74.9728 89.905 75.1378 89.515 75.1378 89.015C75.1378 88.505 74.9628 88.1 74.6128 87.8C74.2628 87.5 73.7978 87.35 73.2178 87.35H70.9678V90.605H73.2778Z" fill="black"/>
</svg>
